<?xml version="1.0" encoding="UTF-8" standalone="no"?>
<svg
   width="270"
   height="80"
   viewBox="0 0 270 80"
   fill="none"
   version="1.1"
   id="svg2"
   sodipodi:docname="app-logo.svg"
   inkscape:version="1.4 (e7c3feb100, 2024-10-09)"
   xmlns:inkscape="http://www.inkscape.org/namespaces/inkscape"
   xmlns:sodipodi="http://sodipodi.sourceforge.net/DTD/sodipodi-0.dtd"
   xmlns="http://www.w3.org/2000/svg"
   xmlns:svg="http://www.w3.org/2000/svg">
  <defs
     id="defs2" />
  <sodipodi:namedview
     id="namedview2"
     pagecolor="#ffffff"
     bordercolor="#000000"
     borderopacity="0.25"
     inkscape:showpageshadow="2"
     inkscape:pageopacity="0.0"
     inkscape:pagecheckerboard="0"
     inkscape:deskcolor="#d1d1d1"
     inkscape:zoom="1.4851852"
     inkscape:cx="149.47631"
     inkscape:cy="-62.281795"
     inkscape:window-width="1920"
     inkscape:window-height="1017"
     inkscape:window-x="0"
     inkscape:window-y="0"
     inkscape:window-maximized="1"
     inkscape:current-layer="svg2" />
  <g
     id="g2"
     transform="matrix(0.03374051,0,0,0.03374051,-134.08571,104.7154)">
    <rect
       style="fill:#ff0000;fill-rule:evenodd;stroke-width:275.729"
       id="rect246-1-2-6"
       width="5628.1948"
       height="1442.8835"
       x="5120.7764"
       y="-2580.6907" />
    <g
       id="g74-6-4-0-5-8-8"
       transform="matrix(31.267283,0,0,-31.267283,6505.9407,-2068.5363)"
       style="fill:#ffffff">
      <path
         d="m 0,0 c 2.193,7.812 -4.168,10.192 -10.858,10.192 -6.779,0 -13.963,-2.111 -15.953,-9.788 -0.741,-3.502 0.239,-6.465 3.21,-7.902 6.39,-3.098 13.237,-2.155 12.302,-6.555 -0.457,-2.155 -3.33,-3.233 -5.403,-3.233 -3.233,0 -5.118,1.662 -4.43,4.715 h -8.979 c -1.736,-8.8 4.445,-11.008 11.988,-11.008 7.497,0 14.92,3.24 16.372,10.065 1.856,8.755 -5.926,9.294 -11.067,10.685 -2.245,0.629 -4.954,1.392 -4.452,3.772 0.344,1.616 2.424,2.963 4.489,2.963 1.527,0 2.619,-0.359 3.24,-1.033 C -8.875,2.2 -8.673,1.257 -8.979,0 Z m 25.973,-22.898 1.34,6.286 H 11.599 l 1.459,6.869 h 14.457 l 1.332,6.286 H 14.39 l 1.421,6.69 h 15.715 l 1.339,6.285 H 8.171 L 1.28,-22.898 Z m 5.074,0 h 8.081 l 5.276,24.829 h 0.089 l 5.725,-24.829 H 62.654 L 69.546,9.518 H 61.465 L 56.346,-14.547 56.241,-14.637 50.51,9.518 H 37.938 Z m 43.909,0 3.457,6.331 h 13.155 l 0.808,-6.331 h 10.147 L 96.619,9.518 H 85.664 L 65.977,-22.898 Z m 7.079,12.617 7.266,13.469 h 0.135 L 90.7,-10.281 Z m 32.88,-12.617 6.892,32.416 h -8.98 l -6.891,-32.416 z"
         style="fill:#ffffff;fill-opacity:1;fill-rule:evenodd;stroke:none"
         id="path76-1-9-8-0-9-7"
         inkscape:connector-curvature="0" />
    </g>
    <path
       d="M 5120.7757,-1874.2974 H 5415.7 v 30.1281 h -294.9243 z"
       style="fill:#ffffff;fill-opacity:1;fill-rule:evenodd;stroke:none;stroke-width:15.9746"
       id="path78-5-8-5-3-2-6-6"
       inkscape:connector-curvature="0" />
    <path
       d="M 5120.7757,-2118.2741 H 5415.7 v 30.1283 h -294.9243 z"
       style="fill:#ffffff;fill-opacity:1;fill-rule:evenodd;stroke:none;stroke-width:15.9746"
       id="path80-4-6-9-0-8-0-3"
       inkscape:connector-curvature="0" />
    <path
       d="M 5120.7757,-2362.22 H 5415.7 v 30.1283 h -294.9243 z"
       style="fill:#ffffff;fill-opacity:1;fill-rule:evenodd;stroke:none;stroke-width:15.9746"
       id="path82-2-7-1-3-7-8-9"
       inkscape:connector-curvature="0" />
    <path
       d="M 5120.7757,-1630.3515 H 5415.7 v 30.1286 h -294.9243 z"
       style="fill:#ffffff;fill-opacity:1;fill-rule:evenodd;stroke:none;stroke-width:15.9746"
       id="path84-3-4-3-1-5-9-5"
       inkscape:connector-curvature="0" />
    <path
       d="M 5120.7757,-1386.4053 H 5415.7 v 30.128 h -294.9243 z"
       style="fill:#ffffff;fill-opacity:1;fill-rule:evenodd;stroke:none;stroke-width:15.9746"
       id="path86-5-3-4-9-4-6-9"
       inkscape:connector-curvature="0" />
    <path
       d="m 10454.047,-1874.2974 h 294.924 v 30.1281 h -294.924 z"
       style="fill:#ffffff;fill-opacity:1;fill-rule:evenodd;stroke:none;stroke-width:15.9746"
       id="path78-5-8-5-3-2-6-4-7"
       inkscape:connector-curvature="0" />
    <path
       d="m 10454.047,-2118.2741 h 294.924 v 30.1283 h -294.924 z"
       style="fill:#ffffff;fill-opacity:1;fill-rule:evenodd;stroke:none;stroke-width:15.9746"
       id="path80-4-6-9-0-8-0-2-1"
       inkscape:connector-curvature="0" />
    <path
       d="m 10454.047,-2362.22 h 294.924 v 30.1283 h -294.924 z"
       style="fill:#ffffff;fill-opacity:1;fill-rule:evenodd;stroke:none;stroke-width:15.9746"
       id="path82-2-7-1-3-7-8-3-3"
       inkscape:connector-curvature="0" />
    <path
       d="m 10454.047,-1630.3515 h 294.924 v 30.1286 h -294.924 z"
       style="fill:#ffffff;fill-opacity:1;fill-rule:evenodd;stroke:none;stroke-width:15.9746"
       id="path84-3-4-3-1-5-9-7-2"
       inkscape:connector-curvature="0" />
    <path
       d="m 10454.047,-1386.4053 h 294.924 v 30.128 h -294.924 z"
       style="fill:#ffffff;fill-opacity:1;fill-rule:evenodd;stroke:none;stroke-width:15.9746"
       id="path86-5-3-4-9-4-6-3-0"
       inkscape:connector-curvature="0" />
  </g>
</svg>
