<?xml version="1.0" encoding="UTF-8" standalone="no"?>
<svg
   width="56"
   height="56"
   viewBox="0 0 56 56"
   fill="none"
   version="1.1"
   id="svg2"
   sodipodi:docname="check.svg"
   inkscape:version="1.4 (e7c3feb100, 2024-10-09)"
   xmlns:inkscape="http://www.inkscape.org/namespaces/inkscape"
   xmlns:sodipodi="http://sodipodi.sourceforge.net/DTD/sodipodi-0.dtd"
   xmlns="http://www.w3.org/2000/svg"
   xmlns:svg="http://www.w3.org/2000/svg">
  <sodipodi:namedview
     id="namedview2"
     pagecolor="#ffffff"
     bordercolor="#000000"
     borderopacity="0.25"
     inkscape:showpageshadow="2"
     inkscape:pageopacity="0.0"
     inkscape:pagecheckerboard="0"
     inkscape:deskcolor="#d1d1d1"
     inkscape:zoom="5.0633896"
     inkscape:cx="8.0973425"
     inkscape:cy="24.193279"
     inkscape:window-width="1920"
     inkscape:window-height="1017"
     inkscape:window-x="0"
     inkscape:window-y="0"
     inkscape:window-maximized="1"
     inkscape:current-layer="svg2" />
  <path
     d="M 1.5,28 C 1.5,13.3886 13.3886,1.5 28,1.5 42.6114,1.5 54.5,13.3886 54.5,28 54.5,42.6114 42.6114,54.5 28,54.5 13.3886,54.5 1.5,42.6114 1.5,28 Z"
     stroke="#800080"
     stroke-width="3"
     id="path1"
     style="stroke:#ff8200;stroke-opacity:1" />
  <path
     d="M 42.1916,22.0662 27.0248,37.2325 c -0.455,0.4551 -1.0523,0.6841 -1.6496,0.6841 -0.5972,0 -1.1945,-0.229 -1.6496,-0.6841 l -7.5831,-7.5831 c -0.9126,-0.9122 -0.9126,-2.3871 0,-3.2992 0.9121,-0.9126 2.3866,-0.9126 3.2991,0 l 5.9336,5.9336 13.5173,-13.5168 c 0.9121,-0.9126 2.3865,-0.9126 3.2991,0 0.9122,0.9121 0.9122,2.3866 0,3.2992 z"
     fill="#800080"
     id="path2"
     style="fill:#ff8200;fill-opacity:1" />
  <defs
     id="defs2" />
</svg>
